<svg xmlns="http://www.w3.org/2000/svg" width="170" height="134" fill="none"><circle cx="85" cy="67" r="67" fill="#F283C5"/><path fill="#fff" d="M128 85.62a4.36 4.36 0 0 0 4.34 4.36h29.68a7.27 7.27 0 0 0 7.25-7.29c0-3.65-2.69-6.68-6.2-7.24-1.05-4.8-5-8.5-9.9-9.17a11.82 11.82 0 0 0-13.47 11.55c-.49-.28-1.1-.44-1.75-.44a3.76 3.76 0 0 0-3.74 3.8v.45a4.23 4.23 0 0 0-1.87-.44 4.41 4.41 0 0 0-4.34 4.42Z"/><path fill="#DD4AB7" d="M66.5 54.97c.05-22.76 14.46-29.96 26.59-32l-.3-.03-.28-3.26-1.52 3.04a69.16 69.16 0 0 1-7.06-1.32l-.41-4.72-2.04 4.08c-4.5-1.3-6.91-2.57-6.91-2.57C86.56 6.26 97.8 12.4 104 17.84a10.5 10.5 0 0 1 6.09-9.7c1.32 1.9 2 4.2 1.88 6.6 5.08-5.95 13.61-11.2 26.04-4.14 0 0-1.98 1.86-6 4.3L129 11.5l.84 4.66a69.58 69.58 0 0 1-6.46 3.13l-2.26-2.53.58 3.23-1 .38c11.8-1.27 27.21 1.61 33.08 22.9 0 0-4.04-.13-10.82-1.79l.37-6.76-4.01 5.79c-3-.87-6.38-2-10.08-3.5l.28-5.05-2.78 4a123.55 123.55 0 0 1-16.7-8.86 11.7 11.7 0 0 1 2.15 9.66c5.15 17.63 6.48 68.16-7.5 93.66H87.75s24.92-44.47 21.49-88.36a11.75 11.75 0 0 1-4.56-13.9c-4.5 4.77-8.92 8.76-13.05 12.07l-3.88-3.26 1.66 4.99c-3.3 2.51-6.38 4.58-9.15 6.28l-5.62-4.72 2.23 6.7c-6.35 3.51-10.37 4.75-10.37 4.75Z"/><circle cx="39.5" cy="17.5" r="7.5" fill="#F9ACAC"/><path fill="#F283C5" d="m59.98 97.48 11.86-13.61 2.46-2.8c4.22-4.8 4.82-5.5 6.15-6.04 2.93-1.22 6-.39 6.57-.23 3.33.95 5.08 3.4 6.34 5.23 5.42 7.78 7.93 11.8 9.95 15.69 1.93 3.73 4.9 9.05 9.13 15.35l3.17 1.4a23.41 23.41 0 0 0 9.16.7c.26 0 .9 0 1.2.34.45.52-.1 1.58-.78 2.1-.89.64-1.73.26-3.98.33a25.9 25.9 0 0 0-6.02 1.07c-1.96 1.06-4.03 1.06-5.05.18-.21-.18-.55-.57-.68-1.3-.26-.57-.68-1.42-1.34-2.38-1.6-2.39-3.37-3.71-4.76-4.88-1.52-1.3-1.44-1.45-5.58-5.94a701.23 701.23 0 0 0-13.27-13.95l-3.82 9.78a31 31 0 0 1-2.15 5.55c-2.14 4.28-4.76 9.46-8.98 9.8-3.95.34-7.4-3.7-8.74-5.94-2.9-4.7-1.23-9.41-.84-10.45Z"/><path fill="#F9B7DF" d="M25.9 78.9 12.4 67.4c4.7-3.6 9.3-7.3 14-10.9 3.1-2.9 6.2-5.8 9.2-8.7-4.2 1.3-7.5 2.5-9.8 3.4-.7.3-9.2 3.5-19.6 9.8C2 63.6.1 65.1 0 67.2c0 2.5 2.6 4.4 3.8 5.2 4.4 3.7 8.8 7.4 13.3 11l8.8-4.5Zm24.7-1.6 10.2-9.4c-6.2-4.2-12.4-8.3-18.6-12.5a47 47 0 0 0 1.4-4c11.4 3.4 20.3 7.1 20.3 7.1 6.6 2.8 7.8 3.8 8.3 5.3.4 1.1.7 3.3-4.1 11.3-1.9 3.1-4.5 7-8 11.3-3.4-3.3-6.1-5.8-9.5-9.1Zm20.6 19.4 10.3-13.5c.4-.5 1.7-2.2 2.2-2.8 3.6-4.7 4.2-5.4 5.3-6 2.6-1.2 5.3-.4 5.7-.2 2.9.9 4.5 3.4 5.6 5.2 4.7 7.7 6.9 11.7 8.7 15.6 1.7 3.7 4.3 9 7.9 15.2 1 .5 1.9 1 2.8 1.4 1.2.4 2.3.6 3.2.7.5.1 1.5.3 2.7.4 2.1.1 2.6-.1 2.8.3.5.6-.3 2.2-1.4 2.8-.2.1-.3.1-.4.2-.6.1-1.3-.1-4.1-.2h-5.9c-.8-.3-1.5-.5-2.3-.8-.2-.5-.6-1.4-1.2-2.3-1.4-2.5-3.1-4-4.1-4.9-2.1-1.9-3.9-4.2-5.9-6.2-2.5-2.5-6.1-6.7-10.6-13.5-1.1 3.2-2.2 6.4-3.3 9.7-1.5 4.3-1.4 4.5-1.9 5.5-1.2 2.8-4.6 10.7-9.6 10.8-3.5 0-6.5-3.9-7.6-7-1.9-5.1.7-9.7 1.1-10.4Z"/><path fill="#3528BD" d="m68.5 118.3-9.8 13.8h-4.1l5.8-13.5 8.1-.3Zm-25.5 0-11.3 13.8h-4.4l6.5-13.5 9.2-.3Zm91.9-.8 8 14.4h3.4l-4.8-14.1-6.6-.3Zm-23.3 0 10.4 14.4h4.1l-6.1-14.1-8.4-.3Z"/><path fill="#4653E8" d="M27.76 114.2h118.29c1 0 1.82 1.11 1.82 2.47v2.3c0 1.37-.82 2.47-1.82 2.47H27.78c-1 0-1.82-1.1-1.82-2.47v-2.3c-.02-1.36.8-2.47 1.8-2.47Z"/><path fill="#3528BD" d="M65.9 96.62h22.8c.7 0 1.36.28 1.83.73.36.23.65.57.86.99l11.08 22.23H96.5l-9.28-18.6H68.8l-2.92-5.35Z"/><path fill="#A7B1E9" d="m10.88 72.22 22.89 42.96H28.4L10.52 80.46c-3.13-5.26-1.23-7.38.36-8.24Zm34.28-.52h5.79l23.48 43.48h-5.47L45.16 71.7Zm-9.9 0h5.42l23.97 43.48h-5.57L35.27 71.7Zm-10.35 0h5.86l23.17 43.48h-5.23L24.91 71.7Zm-9.83 0h5.34l23.18 43.48h-4.7L15.09 71.7Z"/><path fill="#4658DF" d="M30.3 71.7h5.3l23.8 43.5h-5.9L30.3 71.7Zm-10.4 0h5.3L49 115.2h-5.9L19.9 71.7Zm-7 0h2.5l23.8 43.5h-5.9L10.4 72.5c.4-.4 2-.8 2.5-.8Zm58.4 45.8h-5.7L41.5 73h5.6l24.2 44.5ZM51 72.3h2.4s2.1 0 3.4 2.9l22.4 40.5-4.7-.2L51 72.3Z"/><path fill="#FCE790" d="M34.35 42a20.7 20.7 0 0 1 1.25 41.34c-.42.03-.84.03-1.25.03a20.7 20.7 0 0 1-20.7-20.7A20.7 20.7 0 0 1 34.35 42Z"/><path fill="#BC6C15" d="M33.33 70.3a8.42 8.42 0 1 1 0-16.83 8.42 8.42 0 0 1 0 16.84Z"/><path fill="#E8B536" d="M30.78 69.42a7.74 7.74 0 1 1 0-15.48 7.74 7.74 0 0 1 0 15.48Z"/><path stroke="#1B0088" stroke-linecap="round" stroke-linejoin="round" stroke-width="3" d="M19 131h108m11.5 0h10"/></svg>